<?xml version="1.0" encoding="UTF-8"?>
<svg id="Layer_1" data-name="Layer 1" xmlns="http://www.w3.org/2000/svg" viewBox="0 0 512 505.85">
  <defs>
    <style>
      .cls-1 {
        fill: #defce6;
      }

      .cls-2 {
        fill: #3de872;
      }

      .cls-3 {
        fill: #f2705b;
      }

      .cls-4 {
        fill: #ffd05c;
      }

      .cls-5 {
        fill: #048228;
      }
    </style>
  </defs>
  <polygon class="cls-2" points="107.14 73.47 0 201.07 179.1 201.07 107.24 73.47 107.14 73.47"/>
  <polygon class="cls-5" points="107.24 73.47 179.1 201.07 179.7 201.07 253.78 73.47 107.24 73.47"/>
  <polygon class="cls-2" points="512 201.07 404.86 73.47 331.79 201.07 512 201.07"/>
  <polygon class="cls-1" points="256.91 73.47 253.78 73.47 179.7 201.07 331.09 201.07 256.91 73.47"/>
  <g>
    <polygon class="cls-5" points="331.79 201.07 404.86 73.47 404.86 73.47 256.91 73.47 331.09 201.07 331.79 201.07"/>
    <polygon class="cls-5" points="512 201.07 331.49 201.07 256 505.85 256 505.85 512 201.07"/>
    <polygon class="cls-5" points="0 201.07 255.19 504.84 179.91 201.07 0 201.07"/>
  </g>
  <polygon class="cls-2" points="179.91 201.07 255.19 504.84 256 505.85 331.49 201.07 179.91 201.07"/>
  <path class="cls-4" d="m49.89,115c0-24.19-25.7-49.89-49.89-49.89,24.19,0,49.89-25.7,49.89-49.89,0,24.19,25.7,49.89,49.89,49.89-24.09,0-49.89,25.7-49.89,49.89Z"/>
  <path class="cls-3" d="m95.34,51.4c0-12.4-13.3-25.7-25.8-25.7,12.5,0,25.7-13.3,25.7-25.7,0,12.5,13.3,25.7,25.7,25.7-12.4,0-25.6,13.3-25.6,25.7Z"/>
</svg>