<svg xmlns="http://www.w3.org/2000/svg" width="513" height="510" xmlns:v="https://vecta.io/nano"><path d="M268 1.75L272 4l2.75 1.563c6.432 6.968 8.037 14.923 7.672 24.199-.941 7.226-4.66 11.947-9.422 17.238l1.793 2.16c7.248 8.786 7.248 8.786 10.082 12.84 1.867 2.824 1.867 2.824 3.453 4.305 2.399 2.433 4.45 5.129 6.547 7.82l1.427 1.819 8.24 10.759 1.776 2.355 3.44 4.606 1.588 2.109 1.406 1.888L314 99h2l1-2 2.938-1.562c4.321-2.375 7.642-5.594 11.242-8.93 4.073-3.622 8.391-6.869 12.742-10.148 2.112-1.619 4.167-3.246 6.203-4.953a165.9 165.9 0 0 1 7.125-5.656l2.016-1.516C361 63 361 63 363 62l-.105-2.887-.082-3.801-.105-3.762c.399-4.839 2.187-7.272 5.293-10.863 4.607-2.592 8.845-2.658 14-1.687 4.298 2.18 7.453 4.36 9 9 .537 5.114.586 8.905-1.875 13.5-4.005 4.712-4.224 4.528-11.125 6.5v65l10 2c4.751 6.335 4.174 12.237 3.449 19.801C391 157 391 157 389 160l2.292.044 10.333.268 3.605.068c10.177.313 15.345 2.892 22.77 9.557l3.992 3.52 2.026 1.795 9.106 7.873 1.742 1.492L463 200l21.754 18.506 12.184 10.369 1.636 1.387 6.723 5.617c3.862 3.184 6.323 5.442 7.039 10.488l.039 2.508.086 2.492c-1.126 6.431-6.609 11.041-11.09 15.422l-1.912 1.896-6.022 5.94-6.032 5.961-3.746 3.693c-2.329 2.302-4.489 4.491-6.44 7.129L476 293h-2l-.731 1.717c-1.526 2.744-3.348 4.594-5.58 6.804l-2.7 2.69-2.923 2.882-2.997 2.981-7.893 7.827-12.622 12.526-4.405 4.36-2.71 2.69-2.384 2.359c-2.088 2.1-2.088 2.1-3.708 4.445L424 346h-2l-.735 1.721c-1.51 2.719-3.302 4.547-5.512 6.737l-2.661 2.651-2.885 2.844-2.968 2.952-7.829 7.763-12.476 12.38-4.332 4.287c-4.435 4.403-8.696 8.857-12.763 13.599-3.463 3.888-7.188 7.522-10.885 11.186l-4.469 4.444-11.09 11.028-9.405 9.359-4.365 4.333c-4.452 4.435-8.736 8.922-12.827 13.69-3.705 4.168-7.718 8.043-11.679 11.966l-4.265 4.248-7.419 7.373-8.875 8.824-5.506 5.469c-3.624 3.61-7.177 7.202-10.454 11.132-3.042 3.522-5.128 4.778-9.602 6.012-5.886.263-9.227-1.561-14-5-1.747-1.763-3.434-3.587-5.074-5.449-5.419-6.029-11.076-11.789-16.82-17.508l-2.676-2.666-8.242-8.19-10.957-10.895-2.494-2.469c-3.505-3.49-6.936-6.99-10.157-10.745-3.981-4.627-8.291-8.904-12.625-13.2l-4.469-4.444L162 420l-11.008-10.952-4.365-4.333c-4.457-4.44-8.745-8.932-12.841-13.706-3.625-4.077-7.557-7.859-11.439-11.689l-5.537-5.5-8.678-8.592-8.41-8.346-2.651-2.61-2.419-2.409-2.143-2.121C91 348 91 348 91 346l-1.803-.78c-2.396-1.331-3.617-2.626-5.343-4.74-4.235-4.999-8.844-9.56-13.506-14.16l-5.537-5.5-8.678-8.592-8.41-8.346-2.651-2.61-2.419-2.409-2.143-2.121C39 295 39 295 39 293l-1.816-.792c-2.337-1.292-3.466-2.47-5.134-4.536-3.206-3.789-6.604-7.298-10.133-10.781l-1.649-1.631-6.822-6.716-5.03-4.965-1.559-1.518c-4.156-4.127-6.142-7.056-6.234-12.935l-.086-2.492c1.175-6.711 6.57-10.801 11.523-14.945l2.016-1.718 14.378-11.86c2.579-2.139 5.066-4.354 7.543-6.609 4.197-3.822 8.537-7.415 12.949-10.984 3.571-2.945 7.063-5.973 10.551-9.016a553 553 0 0 1 15.941-13.375c2.674-2.221 5.243-4.53 7.809-6.875 6.647-6.044 11.692-10.262 20.949-10.566l3.662-.127 3.826-.119 3.861-.131L125 160l-1-3h-2l-.25-8.75-.102-2.5c-.099-6.15-.099-6.15 2.242-9.266C128.586 133.18 128.817 134 136 134V67l-8-1c-2.973-2.269-4.582-4.572-6-8-.195-2.578-.195-2.578-.125-5.25l.055-2.703L122 48h2l.688-2.25c1.64-3.437 3.058-4.769 6.313-6.75 4.819-1.264 7.705-1.457 12.25.625 3.477 2.033 5.877 3.706 7.75 7.375.49 4.836.544 9.369-1 14l1.446 1.111c15.972 12.288 15.972 12.288 23.179 18.514 4.873 4.191 9.883 8.173 15 12.063l2.084 1.606 1.955 1.468 1.733 1.311c1.727 1.177 1.727 1.177 4.603.927 1.645-1.97 3.11-3.897 4.563-6A131.67 131.67 0 0 1 209 86h2l.375-1.937L212 82l2-1 1-3 5-5c1.596-1.974 3.157-3.976 4.688-6l2.598-3.418 1.34-1.771 7-9.124 2.539-3.301L240 47l-1.207-1.469c-5.918-7.487-8.547-13.754-8.266-23.434 1.107-7.253 4.79-13.157 10.535-17.66 7.982-5.501 17.944-6.52 26.938-2.687z" fill="#05c2f7"/><path d="M268 1.75L272 4l2.75 1.563c6.432 6.968 8.037 14.923 7.672 24.199-.941 7.226-4.66 11.947-9.422 17.238l1.793 2.16c7.248 8.786 7.248 8.786 10.082 12.84 1.867 2.824 1.867 2.824 3.453 4.305 2.399 2.433 4.45 5.129 6.547 7.82l1.427 1.819 8.24 10.759 1.776 2.355 3.44 4.606 1.588 2.109 1.406 1.888L314 99h2l1-2 2.938-1.562c4.321-2.375 7.642-5.594 11.242-8.93 4.073-3.622 8.391-6.869 12.742-10.148 2.112-1.619 4.167-3.246 6.203-4.953a165.9 165.9 0 0 1 7.125-5.656l2.016-1.516C361 63 361 63 363 62l-.105-2.887-.082-3.801-.105-3.762c.399-4.839 2.187-7.272 5.293-10.863 4.607-2.592 8.845-2.658 14-1.687 4.298 2.18 7.453 4.36 9 9 .537 5.114.586 8.905-1.875 13.5-4.005 4.712-4.224 4.528-11.125 6.5v65l10 2c4.627 6.17 4.383 12.359 3.516 19.793-.708 3.031-1.988 4.445-4.516 6.207-2.32 1.16-3.648 1.127-6.23 1.131l-2.705.012-2.99-.003-3.162.009-10.56.012-7.543.015-20.541.024-12.822.012-35.486.026h-2.295l-2.301.001-4.616.001-2.313.001-37.101.045-38.074.037-21.384.025-20.11.01a1713.81 1713.81 0 0 0-7.391.013c-3.357.013-6.714.007-10.071-.004l-2.97.024c-8.479-.062-8.479-.062-12.336-3.392v-2h-2l-.25-8.75-.102-2.5c-.099-6.15-.099-6.15 2.242-9.266C128.586 133.18 128.817 134 136 134V67l-8-1c-2.973-2.269-4.582-4.572-6-8-.195-2.578-.195-2.578-.125-5.25l.055-2.703L122 48h2l.688-2.25c1.64-3.437 3.058-4.769 6.313-6.75 4.819-1.264 7.705-1.457 12.25.625 3.477 2.033 5.877 3.706 7.75 7.375.49 4.836.544 9.369-1 14l1.446 1.111c15.972 12.288 15.972 12.288 23.179 18.514 4.873 4.191 9.883 8.173 15 12.063l2.084 1.606 1.955 1.468 1.733 1.311c1.727 1.177 1.727 1.177 4.603.927 1.645-1.97 3.11-3.897 4.563-6A131.67 131.67 0 0 1 209 86h2l.375-1.937L212 82l2-1 1-3 5-5c1.596-1.974 3.157-3.976 4.688-6l2.598-3.418 1.34-1.771 7-9.124 2.539-3.301L240 47l-1.207-1.469c-5.918-7.487-8.547-13.754-8.266-23.434 1.107-7.253 4.79-13.157 10.535-17.66 7.982-5.501 17.944-6.52 26.938-2.687z" fill="#fbd177"/><path d="M297 251v2l2.172.254c12.379 3.266 22.908 18.986 29.043 29.391 2.816 5.293 4.957 10.651 6.785 16.355l.969 2.969c5.63 20.226 2.076 41.83-7.832 60.074L327 364h-2l-.312 1.738C322.361 373.392 314.035 381.053 308 386h-3l-1 3h-3v2l-4 1v72l-39-39c-3.227 1.418-5.363 3.123-7.835 5.624l-2.234 2.244-2.38 2.421-2.464 2.48-7.774 7.856-7.806 7.877-4.854 4.908-2.205 2.225-1.949 1.974C217 464 217 464 216 464v-72l-6-2c-9.545-6.766-17.459-14.683-23-25l-1.879-2.715c-11.483-17.784-11.776-40.385-8.082-60.743C179.99 288.478 187.125 276.871 196 267l1.602-1.848C222.186 238.57 266.009 232.278 297 251z" fill="#f3af04"/><path d="M1 248h157c20.582 54.163 20.582 54.163 19 61-1.642 21.036-.95 41.095 12.689 58.312C191 369 191 369 192.563 371.625c3.44 5.684 7.736 9.7 13 13.625l1.709 1.313A53.39 53.39 0 0 0 216 392l1 71 16-16c1.805 2.708 2.878 4.992 4.047 8.003l1.203 3.086 1.285 3.333 1.329 3.434 2.776 7.202 4.26 10.988 2.697 7 1.291 3.309c2.005 5.247 3.653 10.033 4.111 15.644-6.524-.266-9.483-2.441-14-7l-3.104-3.596c-4.35-5.004-9.032-9.646-13.74-14.311l-4.254-4.237-7.402-7.356-8.844-8.793-5.486-5.449c-3.661-3.647-7.263-7.293-10.629-11.216-3.966-4.616-8.266-8.879-12.586-13.161l-4.469-4.444L162 420l-11.008-10.952-4.365-4.333c-4.457-4.44-8.745-8.932-12.841-13.706-3.625-4.077-7.557-7.859-11.439-11.689l-5.537-5.5-8.678-8.592-8.41-8.346-2.651-2.61-2.419-2.409-2.143-2.121C91 348 91 348 91 346l-1.803-.78c-2.396-1.331-3.617-2.626-5.343-4.74-4.235-4.999-8.844-9.56-13.506-14.16l-5.537-5.5-8.678-8.592-8.41-8.346-2.651-2.61-2.419-2.409-2.143-2.121C39 295 39 295 39 293l-1.816-.792c-2.337-1.292-3.466-2.47-5.134-4.536-3.206-3.789-6.604-7.298-10.133-10.781l-1.649-1.631-6.822-6.716-5.03-4.965-1.559-1.518C2.083 257.318 2.083 257.318 1 254v-6z" fill="#71dcf9"/><path d="M216 393c5.235 1.745 10.287 3.699 15.391 5.781 8.069 2.725 15.872 3.583 24.359 3.531l2.912-.015c11.456-.188 21.327-2.471 31.815-7.212C293 394 293 394 297 393v71l-39-39c-3.227 1.418-5.363 3.123-7.835 5.624l-2.234 2.244-2.38 2.421-2.464 2.48-7.774 7.856-7.806 7.877-4.854 4.908-2.205 2.225-1.949 1.974C217 464 217 464 216 464v-71z" fill="#eb6152"/><path d="M382 39c4.298 2.18 7.453 4.36 9 9 .537 5.114.586 8.905-1.875 13.5-4.005 4.712-4.224 4.528-11.125 6.5v65l10 2c4.699 6.265 4.158 12.198 3.645 19.703-.878 3.129-2.097 4.284-4.645 6.297-3.116.454-3.116.454-6.734.391l-3.926-.039-4.09-.102-4.137-.055L358 161l1.965-2.527c2.407-3.624 2.602-6.676 2.598-11.035l.066-3.879c-.784-4.439-2.108-5.82-5.629-8.559l-5-2V69c4-2 4-2 5.922-2.797 2.292-1.195 3.555-2.087 5.078-4.203.382-3.628.251-6.991-.047-10.625.067-4.825 1.979-7.14 5.047-10.687 4.607-2.592 8.845-2.658 14-1.687z" fill="#ecba50"/><path d="M256 283c2 1 2 1 2.84 3.253l.883 2.954c3.644 11.968 3.644 11.968 12.211 20.286 6.471 1.807 13.019 2.264 19.719 2.294C294 312 294 312 296 314l-1.668 1.43c-10.759 8.732-10.759 8.732-17.375 20.355.309 3.594 1.058 6.747 2.043 10.215.437 2.782.741 5.577 1.063 8.375L281 361c-6.12-1.756-11.333-4.822-16.811-7.986l-2.193-1.213-1.963-1.12c-3.433-1.15-6.032-.163-9.205 1.366l-2.148 1.273-2.371 1.371-4.891 2.891-2.363 1.363-2.141 1.266C235 361 235 361 232 360l.653-2.193c4.27-14.038 4.27-14.038 1.77-27.853-4.634-5.897-10.337-10.613-16.423-14.955l1-3 2.104.03c7.839-.068 15.836-.346 22.896-4.03 6.213-6.953 9.229-16.226 12-25z" fill="#f0f1f0"/><path d="M148 61c4.914 1.489 8.403 4.442 12 8 1.373 2.747 1.12 4.936 1.114 8.01v3.822l-.016 4.145-.004 4.229-.025 11.136-.02 11.361L161 134h-24V67l10-5 1-1z" fill="#edba50"/><path d="M134 174c23.299 0 23.299 0 30.438 5.375 3.732 3.823 4.418 6.156 4.938 11.438-.133 4.679-1.727 8.364-4.375 12.188-2.75 2.5-2.75 2.5-5 4 1.963 5.489 4.983 10.36 7.898 15.381C171 227.793 171 227.793 171 230h-10l-5-9.375-1.445-2.695-1.367-2.578-1.27-2.38C151 211 151 211 151 209l-8 1-1 20h-8v-56zm240 0c2.66 3.302 4.561 6.795 6.504 10.559l.982 1.897 2.04 3.961 3.114 6.03c5.528 10.717 5.528 10.717 7.361 15.553 2.42-3.012 4.101-6.049 5.742-9.543l1.543-3.256 1.59-3.389c3.486-7.41 7.022-14.721 11.125-21.812 2.372 2.372 2.543 3.619 3.237 6.861l.667 3.064.698 3.321.731 3.4 1.518 7.129 2.337 10.929 1.477 6.916.71 3.315.648 3.074.574 2.707C427 227 427 227 427 230h-9l-7-31-3.5 7.063c-4.014 8.062-8.22 16.014-12.5 23.938-3.109-2.647-4.565-5.788-6.355-9.418l-.929-1.87-2.903-5.899-1.982-4.006L378 199c-1.89 7.387-3.652 14.781-5.187 22.25l-.537 2.582L371 230h-9l8.25-42.062.782-3.854.734-3.556.649-3.164C373 175 373 175 374 174zm-147 0c3.294 3.066 5.042 6.671 7.012 10.66l1.131 2.26 2.347 4.723 3.614 7.242 2.283 4.588 1.098 2.194C247 210.769 247 210.769 247 213h2l1.02-3.527c2.449-7.346 6.162-14.152 9.668-21.035l2.127-4.213L267 174l2 1c.658 2.029.658 2.029 1.237 4.732l.667 3.055.698 3.327.731 3.397 1.518 7.135 2.337 10.923 1.477 6.92.71 3.308.648 3.083.574 2.709C280 226 280 226 280 230h-8l-8-31-.93 1.984-4.257 9.016-1.463 3.121c-2.795 5.889-5.768 11.431-9.35 16.879-3.753-4.755-6.334-10.084-9.125-15.437l-1.668-3.143-1.59-3.041-1.45-2.763c-1.143-2.56-1.738-4.854-2.167-7.615h-2l-.375 3.816c-.604 5.429-1.585 10.761-2.625 16.121l-.539 2.861c-1.332 6.943-1.332 6.943-2.461 9.201h-8c.555-6.883 1.584-13.528 3.031-20.277l.594-2.828 1.241-5.856 1.896-8.978 1.207-5.713.571-2.708.536-2.51.469-2.203C226 177 226 177 227 174z" fill="#f0f1f0"/><path d="M265.684.754c2.214.952 4.25 2.009 6.316 3.246l2.75 1.563c5.476 5.932 7.572 12.636 7.813 20.625-.326 7.853-2.105 12.784-7.875 18.125-6.182 4.82-12.875 6.936-20.687 6.688-3.131-.727-6.047-1.737-9-3 0-4.54.843-5.084 3.688-8.309 3.687-4.751 4.895-10.405 4.66-16.332C252.178 15.422 248.447 9.694 243 4c7.321-4.431 14.161-5.64 22.684-3.246z" fill="#e96353"/><path d="M92 174c22.623 0 22.623 0 27.609 4.43 4.226 4.772 4.69 8.905 4.602 15.004-.433 5.268-2.276 9.006-6.211 12.441-5.36 3.797-10.596 3.598-17 4.125l-1 20h-8v-56zm223.848-.098L322 174l.06 3.377.257 12.474.104 5.386.164 7.767.035 2.409c.127 4.864.713 8.998 2.379 13.587 2.918 2.585 4.671 2.971 8.563 3.313 3.254-.296 4.765-.569 7.438-2.312 3.07-5.515 3.46-11.792 3.512-17.973l.054-2.45.121-7.64.104-5.225L345 174h8l.165 17.078.062 5.802.067 8.371.047 2.593c.002 6.907-1.162 12.435-5.59 17.97-5.424 4.314-10.425 5.768-17.254 5.539-5.308-.748-9.117-2.972-12.871-6.727-4.484-7.243-4.782-15.39-4.758-23.711l-.003-2.25.005-4.664-.006-7.168.004-4.543-.006-2.171c.029-6.059.029-6.059 2.987-6.215z" fill="#f0f1f0"/><path d="M339 82v52h-24l-.592-14.362-.207-4.886-.275-7.022-.113-2.207c-.15-5.04-.15-5.04 1.501-7.405C317 97 317 97 320.063 95.375c4.479-2.445 7.995-5.885 11.703-9.352C336.208 82 336.208 82 339 82zm-164 1c3.54.885 4.64 1.238 7.277 3.363l1.807 1.439 1.854 1.51 1.842 1.475 3.564 2.875 4.536 3.568C198 99 198 99 199 101l.098 7.414-.004 2.211-.031 7-.014 4.742L199 134h-24V83z" fill="#ecba51"/><path d="M182 174h25v8h-16v15h13v8h-13l1 17 17 1v7h-27v-56zm81-95c4.738 2.678 6.4 5.864 8 11 .773 5.981.024 10.683-3 16-4.293 3.979-6.995 5.325-12.906 5.207-4.868-.481-7.412-2.382-10.469-6.082C241.927 99.808 242.256 93.778 243 88c1.498-4.043 4.35-6.763 8-9 4.191-1.397 7.722-.957 12 0z" fill="#f0f1f0"/><path d="M147.875 43.625L150 46l1 1c.592 4.964 1.159 10.296-1.937 14.5C146 64 146 64 137 67v67h-1V67l-8-1c-2.973-2.269-4.582-4.572-6-8-.195-2.578-.195-2.578-.125-5.25l.055-2.703L122 48h2l.688-2.25c1.626-3.406 3.112-4.759 6.313-6.75 6.98-1.939 11.6-.191 16.875 4.625z" fill="#9cc28d"/><path d="M382 39c4.298 2.18 7.453 4.36 9 9 .537 5.114.586 8.905-1.875 13.5-3.072 3.614-5.112 5.265-9.832 6.383-4.265.218-7.643-1.88-11.293-3.883l-2.203-.953C364 62 364 62 363 59c-.389-4.837-.648-9.398 1.188-13.937L366 43l2-2.312c4.607-2.592 8.845-2.658 14-1.687z" fill="#9dc28c"/><path d="M291 174h8v56h-8v-56z" fill="#f0f1f0"/><path d="M146.125 180.813c4.824.233 9.158.528 12.75 4 2.148 4.176 2.422 6.232 1 10.813-2.098 3.777-2.831 4.943-6.875 6.375-3.682.228-7.317.174-11 0l-.062-9.937-.025-2.865-.01-2.725-.016-2.523c.192-3.29.873-2.935 4.239-3.137z" fill="#10c5f8"/><path d="M250 110l14 1 .063 10.938.025 3.154.01 2.998.016 2.777C264 133 264 133 263 134c-4.335.144-8.662.042-13 0v-24z" fill="#eeba50"/><path d="M100 182l4.313-.086 2.426-.048c3.072.182 4.896 1.212 7.262 3.134 1.746 3.492 1.559 7.19 1 11-2.076 3.214-3.546 4.649-7.301 5.555-2.264.296-4.417.511-6.699.445-1-1-1-1-1.114-2.858l.016-2.396.01-2.588.025-2.721.014-2.732L100 182z" fill="#12c5f8"/><path d="M242 4c0 3 0 3-1.531 4.605l-1.969 1.582-1.969 1.605L235 13c1.35-4.419 3.261-6.343 7-9z" fill="#c4c781"/></svg>